PathFileType	4	(X/Y/Z)	C:/Users/beibeiliu/ov580/test_trc/User3\sequence.25_training_dense_left.trc
DataRate	CameraRate	NumFrames	NumMarkers	Units	OrigDataRate	OrigDataStartFrame	OrigNumFrames
120	120	9	19	mm	120	240	274
Frame#	Time	ThumbCMC			ThumbMCP			ThumbIP			ThumbTip			IndexMCP			IndexPIP			IndexTip			MiddleMCP			MiddlePIP			MiddleTip			RingMCP			RingPIP			RingTip			PinkyMCP			PinkyPIP			PinkyTip			BackHand1			BackHand2			BackHand3	
		X0	Y0	Z0	X1	Y1	Z1	X2	Y2	Z2	X3	Y3	Z3	X4	Y4	Z4	X5	Y5	Z5	X6	Y6	Z6	X7	Y7	Z7	X8	Y8	Z8	X9	Y9	Z9	X10	Y10	Z10	X11	Y11	Z11	X12	Y12	Z12	X13	Y13	Z13	X14	Y14	Z14	X15	Y15	Z15	X16	Y16	Z16	X17	Y17	Z17	X18	Y18	Z18	
239	1.99167	-150.29	-11.2265	28.8544	-138.354	-22.3855	2.62107	-124.171	-29.3376	-23.5001	-116.824	-36.6674	-47.0846	-145.914	-16.3447	-48.6828	-135.071	-46.9337	-52.8212	-143.474	-54.8819	-19.8117	-162.416	-26.5488	-53.5725	-161.894	-57.0016	-43.884	-169.475	-39.6955	-8.39411	-182.871	-30.4108	-49.8818	-177.848	-59.8926	-38.8679	-181.851	-52.3881	-9.22168	-199.839	-18.1317	-42.6186	-191.893	-30.1355	-68.003	-186.112	-40.9203	-82.1155	-199.235	8.02896	-10.6617	-209.844	13.8895	20.215	-171.764	15.9443	12.5203	
240	2	-149.655	-8.79241	26.6625	-134.338	-20.0261	6.86446	-119.798	-26.8098	-20.6588	-119.022	-34.1511	-44.1035	-143.744	-14.418	-47.6237	-135.474	-47.284	-49.4376	-138.919	-52.5702	-20.22	-161.301	-28.208	-54.319	-156.71	-54.6506	-44.8858	-165.969	-37.5955	-6.39894	-176.286	-29.7264	-49.1349	-173.806	-57.8619	-38.938	-178.413	-48.1431	-5.59122	-199.075	-18.6906	-49.0566	-191.068	-29.5639	-66.5705	-180.773	-42.0703	-82.8483	-200.387	9.99455	-9.36187	-206.415	12.2578	18.6432	-170.804	18.3879	12.5786	
241	2.00833	-152.583	-5.0918	31.2497	-132.019	-14.6989	6.79274	-116.339	-18.9211	-22.0711	-114.543	-27.3509	-40.6912	-138.684	-7.54005	-45.6622	-128.52	-37.4365	-50.4577	-136.464	-46.0349	-19.7048	-155.32	-18.6246	-52.2694	-148.434	-49.6915	-42.596	-161.434	-36.1346	-7.08718	-173.894	-25.2187	-50.283	-170.899	-55.9593	-37.5443	-172.226	-43.6307	-6.21809	-196.059	-15.922	-48.1997	-184.858	-26.0581	-68.1322	-177.115	-38.8389	-84.2516	-199.404	12.5643	-8.40298	-209.296	12.717	19.5634	-172.968	19.318	10.1303	
242	2.01667	-147.938	0.0980868	31.8516	-133.008	-6.50036	5.56354	-113.647	-9.93252	-18.2366	-105.848	-15.4229	-42.4549	-133.3	1.10403	-45.9508	-124.909	-28.8644	-49.3848	-133.466	-37.2611	-18.3835	-152.14	-10.9232	-52.8133	-142.243	-40.6362	-42.2308	-157.739	-31.8234	-9.16479	-173.144	-17.2704	-51.7231	-161.289	-45.3241	-40.6324	-170.212	-38.3461	-7.65899	-190.141	-7.45532	-47.6096	-178.108	-14.7711	-65.762	-169.392	-28.1656	-86.4688	-193.774	17.1924	-6.5131	-206.403	15.3259	22.0883	-169.766	25.8767	14.3426	
243	2.025	-148.08	3.78664	33.3964	-128.898	-0.297174	9.52037	-114.41	0.0160113	-17.0044	-104.815	-2.7192	-38.7205	-134.521	13.6092	-43.9221	-123.14	-14.8124	-52.3595	-128.077	-28.1021	-20.1169	-148.099	1.10406	-51.4383	-141.06	-29.7586	-47.3705	-156.601	-24.0495	-11.2841	-170.204	-4.95702	-49.2487	-157.086	-33.2003	-47.7367	-166.646	-31.7815	-11.0599	-186.048	1.42756	-47.7835	-176.96	-3.52055	-66.7904	-165.409	-13.0184	-84.5649	-191.363	22.3115	-7.05782	-203.812	19.9884	22.7868	-173.614	28.9467	18.4172	
244	2.03333	-147.873	5.70406	32.3248	-126.991	5.31725	12.0429	-113.587	8.81953	-13.2803	-103.508	10.8169	-39.9126	-133.957	26.4871	-38.4734	-121.75	0.951542	-55.571	-122.268	-17.6129	-25.2981	-146.752	14.8905	-50.7955	-141.204	-16.1353	-52.0068	-154.054	-16.8924	-14.6655	-165.52	7.60078	-49.7181	-156.029	-23.4557	-48.1692	-166.001	-25.5514	-16.0251	-186.86	12.4528	-44.9076	-178.262	10.4985	-64.9221	-164.91	5.06346	-85.5997	-195.436	26.9574	-1.9363	-204.389	23.6604	23.1841	-167.822	31.5949	26.1139	
245	2.04167	-147.116	6.5634	36.695	-124.835	12.4403	8.95551	-112.491	16.2055	-13.0825	-110.654	17.8413	-38.0166	-134.56	35.4629	-37.898	-121.56	12.5387	-55.2722	-121.59	-10.4027	-29.9749	-147.491	27.6345	-45.9987	-140.242	-3.21443	-55.0884	-154.487	-9.48501	-18.6471	-163.842	19.3146	-49.3305	-158.122	-11.7709	-52.6688	-165.519	-19.0692	-22.9721	-188.945	22.1263	-43.975	-175.855	22.7467	-62.2702	-164.592	19.9556	-84.45	-192.516	34.3189	-0.967216	-203.562	25.1434	26.631	-167.752	34.7876	28.466	
246	2.05	-144.121	8.06241	35.8801	-125.853	16.2109	8.93847	-118.113	20.1881	-14.3286	-125.217	21.5137	-40.9116	-130.735	41.8246	-35.826	-116.976	19.8098	-54.8711	-125.523	-5.81273	-36.5219	-146.361	34.611	-46.1248	-138.061	2.70931	-54.4721	-148.383	-5.60876	-19.7175	-168.413	25.4517	-49.0114	-154.439	-4.87604	-52.6818	-165.365	-12.2331	-21.6657	-183.944	29.0709	-43.7239	-172.406	29.206	-64.673	-164.809	25.1462	-81.3126	-189.055	38.9746	1.89717	-203.466	25.23	29.8881	-166.629	36.7854	26.8331	
247	2.05833	-147.165	8.4024	34.834	-129.464	13.0253	10.8399	-121.654	22.7903	-19.2934	-133.773	20.0865	-40.3897	-127.674	43.4159	-32.736	-116.424	21.8355	-54.5433	-121.298	-6.08741	-36.82	-146.328	35.6056	-46.3601	-136.306	7.11252	-57.1785	-150.149	-5.22762	-20.1543	-167.396	26.1769	-47.944	-160.181	-5.06174	-53.6365	-166.046	-10.5747	-20.1315	-187.238	29.3431	-43.205	-173.65	28.86	-63.2357	-162.198	25.038	-82.6603	-193.208	38.75	1.0527	-203.556	27.9343	28.569	-170.382	35.5886	30.5865	
